PathFileType  4	(X/Y/Z) C:\Users\wagnerel85475\Documents\Thesis\opencap-core\Data\3375ffbc-daeb-4a43-b4f7-ac9899cd4c71\MarkerData\PreAugmentation
DataRate	CameraRate	NumFrames	NumMarkers	Units	OrigDataRate	OrigDataStartFrame	OrigNumFrames
60.0	60.0	12	20	m	60.0	177	282
Frame#	Time	Neck			RShoulder			RElbow			RWrist			LShoulder			LElbow			LWrist			midHip			RHip			RKnee			RAnkle			LHip			LKnee			LAnkle			LBigToe			LSmallToe			LHeel			RBigToe			RSmallToe			RHeel			
		X1	Y1	Z1	X2	Y2	Z2	X3	Y3	Z3	X4	Y4	Z4	X5	Y5	Z5	X6	Y6	Z6	X7	Y7	Z7	X8	Y8	Z8	X9	Y9	Z9	X10	Y10	Z10	X11	Y11	Z11	X12	Y12	Z12	X13	Y13	Z13	X14	Y14	Z14	X15	Y15	Z15	X16	Y16	Z16	X17	Y17	Z17	X18	Y18	Z18	X19	Y19	Z19	X20	Y20	Z20	

177	2.9333333	0.7629000	1.3716700	-0.1763300	0.7585800	1.3742400	0.0134700	0.6915300	1.0702400	0.0872600	0.7842100	0.7943900	0.1628500	0.7767900	1.3679700	-0.3696700	0.7701100	1.0777400	-0.4416500	0.8704400	0.7918800	-0.4766000	0.8100200	0.8312100	-0.1663300	0.8114500	0.8311100	-0.0504700	0.7668700	0.3485100	-0.0318400	0.6775700	-0.1878600	-0.0000200	0.8242300	0.8269300	-0.2706500	0.7488400	0.3555900	-0.2758700	0.6867600	-0.1780500	-0.3159600	0.9027800	-0.2277700	-0.3452300	0.8376900	-0.2272000	-0.3875700	0.6397500	-0.2238500	-0.3129100	0.8916900	-0.2394800	0.0458900	0.8351700	-0.2346000	0.0799800	0.6179500	-0.2338900	-0.0198300
178	2.9500000	0.7630500	1.3716500	-0.1762900	0.7580700	1.3742000	0.0131500	0.6920000	1.0733000	0.0873300	0.7751200	0.7961600	0.1593700	0.7853900	1.3680500	-0.3734100	0.7704400	1.0778300	-0.4419100	0.8779400	0.7931600	-0.4798000	0.8100200	0.8278600	-0.1668200	0.8110700	0.8341100	-0.0507800	0.7667300	0.3487900	-0.0320600	0.6774300	-0.1909700	0.0006500	0.8167900	0.8265000	-0.2746500	0.7502100	0.3532000	-0.2755800	0.6867100	-0.1781800	-0.3159500	0.9022000	-0.2279900	-0.3450500	0.8378300	-0.2273000	-0.3875300	0.6398300	-0.2236300	-0.3129100	0.8918200	-0.2421500	0.0465700	0.8357200	-0.2346100	0.0801300	0.6180600	-0.2339000	-0.0197600
179	2.9666667	0.7629400	1.3716400	-0.1764000	0.7585700	1.3742000	0.0134800	0.6914400	1.0702300	0.0873000	0.7750000	0.7966300	0.1595800	0.7853600	1.3678000	-0.3733200	0.7788000	1.0782600	-0.4451600	0.8791300	0.7930600	-0.4800600	0.8099400	0.8314100	-0.1663800	0.8112700	0.8339600	-0.0505900	0.7668000	0.3485100	-0.0319000	0.6774000	-0.1912000	0.0006400	0.8328700	0.8280400	-0.2745800	0.7502600	0.3524600	-0.2755300	0.6867300	-0.1780700	-0.3159500	0.9027400	-0.2277800	-0.3452200	0.8376200	-0.2273000	-0.3875500	0.6398200	-0.2238600	-0.3128800	0.8913600	-0.2358200	0.0466100	0.8273300	-0.2375900	0.0842400	0.6178900	-0.2339200	-0.0198200
180	2.9833333	0.7714100	1.3715400	-0.1802900	0.7581700	1.3742400	0.0131300	0.6913700	1.0702700	0.0875200	0.7752900	0.7962600	0.1592800	0.7853600	1.3680600	-0.3734600	0.7793200	1.0783600	-0.4454500	0.8783100	0.7932600	-0.4800400	0.8102700	0.8317600	-0.1667500	0.8110600	0.8340600	-0.0508000	0.7666200	0.3486900	-0.0321200	0.6774600	-0.1909600	0.0006400	0.8339500	0.8286300	-0.2747800	0.7586200	0.3551200	-0.2792200	0.6867200	-0.1782100	-0.3159800	0.9020500	-0.2250700	-0.3456700	0.8377400	-0.2272500	-0.3875000	0.6398800	-0.2236200	-0.3129300	0.8917700	-0.2421000	0.0466000	0.8278400	-0.2375600	0.0844000	0.6181100	-0.2338800	-0.0198000
181	3.0000000	0.7713100	1.3715000	-0.1804300	0.7586300	1.3742400	0.0134200	0.6917800	1.0731600	0.0871700	0.7844800	0.7978500	0.1624400	0.7853100	1.3678100	-0.3734300	0.7790300	1.0815100	-0.4453000	0.8793800	0.7932400	-0.4802900	0.8183000	0.8316100	-0.1706500	0.8116900	0.8368700	-0.0508900	0.7666500	0.3443800	-0.0322300	0.6774200	-0.1911700	0.0006300	0.8409300	0.8353200	-0.2787300	0.7486600	0.3559100	-0.2759200	0.6867300	-0.1780900	-0.3159600	0.9025300	-0.2248500	-0.3458200	0.8375200	-0.2272600	-0.3875200	0.6398800	-0.2238200	-0.3128800	0.8913700	-0.2387700	0.0472300	0.8273600	-0.2376200	0.0842400	0.6178800	-0.2339300	-0.0198200
182	3.0166667	0.7714400	1.3715000	-0.1803900	0.7663100	1.3741200	0.0087700	0.6823200	1.0728200	0.0841900	0.7847800	0.8006600	0.1619900	0.7853200	1.3680200	-0.3735400	0.7795000	1.0815400	-0.4456100	0.8786400	0.7934900	-0.4802000	0.8101500	0.8309200	-0.1671900	0.8113300	0.8369200	-0.0511000	0.7665200	0.3445500	-0.0324200	0.6775100	-0.1909500	0.0006200	0.8335000	0.8315700	-0.2749900	0.7503500	0.3527200	-0.2755100	0.6867600	-0.1781900	-0.3159700	0.9019400	-0.2250700	-0.3456000	0.8376900	-0.2271900	-0.3874400	0.6399100	-0.2235600	-0.3129200	0.8919200	-0.2420400	0.0465600	0.8358100	-0.2345700	0.0801200	0.6180700	-0.2339200	-0.0197500
183	3.0333333	0.7713200	1.3714300	-0.1805700	0.7667300	1.3741200	0.0090400	0.6818200	1.0697000	0.0841100	0.7846800	0.8011900	0.1622400	0.7854800	1.3640300	-0.3734300	0.7792800	1.0782000	-0.4454100	0.8878100	0.7942800	-0.4836800	0.8181700	0.8315600	-0.1707000	0.8116600	0.8368200	-0.0509500	0.7666700	0.3443800	-0.0322600	0.6774700	-0.1911600	0.0006200	0.8408400	0.8352000	-0.2787500	0.7498100	0.3527500	-0.2756600	0.6867600	-0.1780700	-0.3159600	0.9024600	-0.2248700	-0.3458000	0.8374500	-0.2272400	-0.3875200	0.6399800	-0.2237400	-0.3128500	0.8916900	-0.2422400	0.0465700	0.8353700	-0.2346000	0.0799800	0.6178900	-0.2339700	-0.0198000
184	3.0500000	0.7714600	1.3714800	-0.1804500	0.7663800	1.3741400	0.0087400	0.6817900	1.0697500	0.0843100	0.7847400	0.8046000	0.1621800	0.7854900	1.3642400	-0.3735100	0.7796700	1.0782000	-0.4456800	0.8868700	0.7944700	-0.4835400	0.8183800	0.8318400	-0.1710600	0.8113000	0.8341000	-0.0509100	0.7664600	0.3445400	-0.0324000	0.6774700	-0.1909700	0.0006500	0.8335600	0.8316600	-0.2749600	0.7501900	0.3528300	-0.2755600	0.6867100	-0.1781900	-0.3159900	0.9019300	-0.2250800	-0.3456200	0.8376100	-0.2272300	-0.3874600	0.6398800	-0.2235300	-0.3129000	0.8920500	-0.2420700	0.0465800	0.8359300	-0.2345500	0.0801400	0.6180100	-0.2339700	-0.0197300
185	3.0666667	0.7713200	1.3714400	-0.1805900	0.7668000	1.3741300	0.0089600	0.6918000	1.0732000	0.0871400	0.7847600	0.8050800	0.1624500	0.7851200	1.3678200	-0.3735000	0.7796500	1.0782100	-0.4529300	0.8878500	0.7943500	-0.4837200	0.8181400	0.8315500	-0.1706300	0.8114300	0.8339700	-0.0506800	0.7666100	0.3443400	-0.0322400	0.6776200	-0.1878100	-0.0000300	0.8326000	0.8312600	-0.2747300	0.7475700	0.3584600	-0.2762200	0.6866800	-0.1780200	-0.3159700	0.9024600	-0.2248300	-0.3458000	0.8373900	-0.2272200	-0.3875000	0.6398100	-0.2237200	-0.3129000	0.8917800	-0.2423300	0.0465900	0.8440900	-0.2313800	0.0829300	0.6178400	-0.2339500	-0.0198100
186	3.0833333	0.7715500	1.3714200	-0.1805000	0.7665400	1.3741100	0.0086700	0.6913500	1.0702600	0.0875300	0.7852700	0.8008600	0.1620800	0.7854800	1.3642500	-0.3735500	0.7799900	1.0781200	-0.4532200	0.8868100	0.7944700	-0.4835600	0.8101400	0.8309800	-0.1671300	0.8113800	0.8370100	-0.0510900	0.7666000	0.3488600	-0.0320100	0.6776200	-0.1875400	-0.0000600	0.8332100	0.8345900	-0.2750700	0.7477400	0.3588100	-0.2762500	0.6866600	-0.1781900	-0.3159800	0.9019700	-0.2250400	-0.3456300	0.8375800	-0.2272300	-0.3874500	0.6397800	-0.2236600	-0.3129100	0.8919400	-0.2355400	0.0466000	0.8358400	-0.2344200	0.0801100	0.6180300	-0.2338200	-0.0198200
187	3.1000000	0.7714600	1.3713700	-0.1806400	0.7750000	1.3739800	0.0047300	0.6919200	1.0733500	0.0871400	0.7851500	0.8013600	0.1622800	0.7854700	1.3640300	-0.3735000	0.7796600	1.0780800	-0.4530200	0.8878200	0.7943100	-0.4838000	0.8098200	0.8346500	-0.1665200	0.8114500	0.8368700	-0.0508200	0.7666700	0.3486200	-0.0317800	0.6780600	-0.1843600	-0.0007600	0.8324700	0.8313800	-0.2746500	0.7474500	0.3586700	-0.2763000	0.6866600	-0.1780500	-0.3159700	0.9024700	-0.2248400	-0.3458000	0.8374300	-0.2272600	-0.3875000	0.6398100	-0.2239100	-0.3129200	0.8916900	-0.2356300	0.0466100	0.8353700	-0.2344400	0.0799500	0.6179200	-0.2338100	-0.0199200
188	3.1166667	0.7798500	1.3712500	-0.1844200	0.7746800	1.3740000	0.0044300	0.6919500	1.0734500	0.0873800	0.7851900	0.8048000	0.1623100	0.7856100	1.3642000	-0.3736400	0.7800900	1.0780500	-0.4532800	0.8868800	0.7944600	-0.4836100	0.8098300	0.8348600	-0.1668700	0.8110600	0.8341900	-0.0507900	0.7665100	0.3488800	-0.0319700	0.6776600	-0.1875600	-0.0001000	0.8248000	0.8305700	-0.2709800	0.7477700	0.3587400	-0.2762600	0.6866300	-0.1782000	-0.3159600	0.9021700	-0.2280100	-0.3449900	0.8376800	-0.2272700	-0.3874500	0.6308000	-0.2268600	-0.3167300	0.8919700	-0.2353900	0.0466200	0.8358600	-0.2343900	0.0801200	0.6181000	-0.2338000	-0.0198800
